<mxfile host="app.diagrams.net" agent="Mozilla/5.0 (Windows NT 10.0; Win64; x64) AppleWebKit/537.36 (KHTML, like Gecko) Chrome/131.0.0.0 Safari/537.36" version="26.0.4">
  <diagram name="Page-1" id="71qpjLJSZLOFUMWbCQmD">
    <mxGraphModel dx="1195" dy="722" grid="1" gridSize="10" guides="1" tooltips="1" connect="1" arrows="1" fold="1" page="1" pageScale="1" pageWidth="850" pageHeight="1100" math="0" shadow="0">
      <root>
        <mxCell id="0" />
        <mxCell id="1" parent="0" />
        <mxCell id="MfhTrvXRpiW5T_UfHGdc-1" value="&lt;div&gt;&lt;div style=&quot;text-align: center;&quot;&gt;&lt;span style=&quot;color: rgb(71, 94, 117); font-family: arial; text-wrap: nowrap;&quot;&gt;&lt;b&gt;&lt;font style=&quot;font-size: 20px;&quot;&gt;Total Margin Calculation&lt;/font&gt;&lt;/b&gt;&lt;/span&gt;&lt;/div&gt;&lt;/div&gt;&lt;div style=&quot;text-align: center;&quot;&gt;&lt;span style=&quot;color: rgb(71, 94, 117); font-family: arial; text-wrap: nowrap;&quot;&gt;&lt;font&gt;Handled by class&amp;nbsp;ZCL_SDNONINV_WF_OPT_HELPER=&amp;gt;GET_MARGIN_PERCENT&lt;/font&gt;&lt;/span&gt;&lt;/div&gt;" style="text;html=1;align=left;verticalAlign=middle;whiteSpace=wrap;rounded=0;strokeWidth=8;" vertex="1" parent="1">
          <mxGeometry x="160" y="700" width="520" height="50" as="geometry" />
        </mxCell>
        <mxCell id="MfhTrvXRpiW5T_UfHGdc-3" value="&lt;div&gt;&lt;div&gt;&lt;span style=&quot;color: rgb(71, 94, 117); font-family: arial; text-wrap: nowrap;&quot;&gt;&lt;b&gt;&lt;font style=&quot;font-size: 23px;&quot;&gt;Margin for in-house Items&lt;/font&gt;&lt;/b&gt;&lt;/span&gt;&lt;/div&gt;&lt;/div&gt;" style="text;html=1;align=left;verticalAlign=middle;whiteSpace=wrap;rounded=0;strokeWidth=8;" vertex="1" parent="1">
          <mxGeometry x="255" y="10" width="250" height="50" as="geometry" />
        </mxCell>
        <mxCell id="MfhTrvXRpiW5T_UfHGdc-5" value="&lt;div&gt;&lt;font style=&quot;font-size: 15px;&quot;&gt;&lt;br&gt;&lt;/font&gt;&lt;/div&gt;&lt;font style=&quot;font-size: 15px;&quot;&gt;Loop through each SO line items where below conditions are met&lt;/font&gt;&lt;div style=&quot;text-align: left;&quot;&gt;&lt;font style=&quot;font-size: 15px;&quot;&gt;&lt;br&gt;&lt;/font&gt;&lt;/div&gt;&lt;div style=&quot;text-align: left;&quot;&gt;&lt;ul&gt;&lt;li&gt;&lt;font style=&quot;font-size: 10px;&quot;&gt;Net value is not initial&lt;/font&gt;&lt;/li&gt;&lt;li&gt;&lt;font style=&quot;font-size: 10px;&quot;&gt;Item category is checked if its in-house based on custom table&amp;nbsp;ZSDCATGRP_ITMCAT - C001 item group is considered as in-house&lt;/font&gt;&lt;/li&gt;&lt;li&gt;&lt;font style=&quot;font-size: 10px;&quot;&gt;Material is not part of table ZSDNONINV_WF_OPT where MARGIN_CALCULATION field is set&lt;/font&gt;&lt;/li&gt;&lt;/ul&gt;&lt;/div&gt;&lt;div&gt;&lt;font style=&quot;font-size: 15px;&quot;&gt;&lt;br&gt;&lt;/font&gt;&lt;/div&gt;&lt;div&gt;&lt;font style=&quot;font-size: 15px;&quot;&gt;&lt;br&gt;&lt;/font&gt;&lt;/div&gt;" style="shape=loopLimit;whiteSpace=wrap;html=1;" vertex="1" parent="1">
          <mxGeometry x="190" y="60" width="380" height="190" as="geometry" />
        </mxCell>
        <mxCell id="MfhTrvXRpiW5T_UfHGdc-6" value="" style="shape=singleArrow;direction=south;whiteSpace=wrap;html=1;" vertex="1" parent="1">
          <mxGeometry x="245" y="250" width="60" height="60" as="geometry" />
        </mxCell>
        <mxCell id="MfhTrvXRpiW5T_UfHGdc-9" value="Calculate &lt;b&gt;Total Cost&lt;/b&gt; by adding condition value of &lt;b&gt;VPRS &lt;/b&gt;condition type by converting it to AUD for all items" style="rounded=0;whiteSpace=wrap;html=1;" vertex="1" parent="1">
          <mxGeometry x="165" y="310" width="225" height="130" as="geometry" />
        </mxCell>
        <mxCell id="MfhTrvXRpiW5T_UfHGdc-13" value="" style="shape=image;verticalLabelPosition=bottom;labelBackgroundColor=default;verticalAlign=top;aspect=fixed;imageAspect=0;image=data:image/png,iVBORw0KGgoAAAANSUhEUgAAApAAAABDCAYAAAArgDX4AAAAAXNSR0IArs4c6QAAAARnQU1BAACxjwv8YQUAAAAJcEhZcwAADsMAAA7DAcdvqGQAAB/XSURBVHhe7Z15eBbVvce/odb19rnLH70qZBNiAFsMi4pQIEYbZPUBqgWUWiiFW4H7WFuWIgKi0gK3XNuQW8FKUBSwFrkKylIIAaTF1mJKlS1keYO1y+3eB2VLcn9n5px5z8w7M3nfeZO88778Pjxf3jnnzDnzmznL/ObMkqyqF5a23FI6AYd/tht9B4/A2b/9AQzDMAzDMAzjhc2B7DNoOD7+829lEsMwDMMwDMPEYnMge39uGD7604cy6RIgsgnD5wHlG8cjX0YxDMMwDMMw/nSSvxYtLS2JK7IRw7vfik9b+jb2uK0nJNadsBF1bmlCraUnqhjbpBb+FJQq9tg9X4fpNFZP+ApWR9zSWCwWi8ViscIn2wxk0YC78Y8/nDY9yURofBmjR0Tw8K/noISC9S9Ow8Cdd+Lg+i+mfmbPYZsNkfYo8L2U2vkBnp20BHhqDb6aI6MYhmEYhmFCjG0G0vQqmwKI8qHZCucNKkHf6nrUiXBkE0ZN2oQ1jw/A9Z/9DvbIcL2xbiPWTBLxUiJepdvyCU3DmojantBBzFH5XNOV7LbFprXQjotl3RatLGEH2b1m/TRrW3MONGGPq10+Zbjui1j/Piyqfg+LRsg0eWyi5Q/AqPWNsnwWi8VisVis1MvmQDY3XSQ1J65meSvYLSyWq7+PmuJ9OP3uN1AswiSx3p7Hx2Nx1+UUL9JIFeOQo9Jt+Uir8rF4/o9QZ2zjNJ59YDaOzd4g8y7H/cYOyO3rEuXotjnTxLZoWdiy9fOyPH1bRv7XsbVlvkwbhRcfGoQdLnb5luG6L9fhKxUbsLjXZ7D4dZkmjsH+5Zh0chYOiDDt26gWzWYWi8VisVisFMs+A4kstDSTZ5mwmo3cKly5rgy/HDuAnEWZ1msGpt+ur9tMvz/Fzs0j8fz8fjLeme7I1yUHfY14Wo4cxNYjI/Gf46+VeZqM7dMeWeGoRHlb8aXeQ5Ctad4BlRa1xSrv9gG4/0gl9ohZQmnHf6s0YYerXa2X4bovpFjbhdOq0vthirafLBaLxWKxWKmW4yUa8irJ2UlYxq3gbXiwbwlySA/WPIR937olmiakryvUeBrHKJetHD1dyRkvliMN+OVnc5Cn0sjhMlwuMVNnxUmJPBiBil/sRoOmp26XaUKGLVH7c/p+Cy+p8vTtqvLcwkmV4bD99nuxsKUcg2VZ897S0lgsFovFYrFSLPsMZBN5lYEkZvKGo+LQTtQLPXsPcmxpzY51RVj8kudkxbulu+Wj5c7Z6GNLI7mWJeS1HZVG5Vx3HQp1+w2txOTrtHWcedqwjFj7rsXkZ80yqr7eExt++GM02NJZLBaLxWKxUifHDCSRFVACt3ghgTOcfStGfvZNTF72c3uaStd/nfHZnVH462ew+pAM/+Y3OKHS3CRwixcSZN2K0jFvouzl31jxVcu+hyrbOpoEMeGgZXRGfrejqPlAhYHIy99DBRUjlnNz84BunZEr01gsFovFYrFSrRgH0u0+d6syZtTELVmvtGaX8LX48prn8Nipx5B/21BT3z4UTffMJ8J98dTKYdj4sMy3uIrScpF3vVxXl5GPHFW1Dbdt0XpD5jyHEbunWOmTW27DECu/lx32cNAyhkyYhhNqX6ZuRkt2C5aMk+GHW7B2Tt9oXhaLxWKxWKwUy/YdyJv6DcFfT58k5ybN+OA1fGEJ8N0195AbyTAMwzAMw7Qndgey7yD8pdG4GRx6qpbfg6+8LgMYiufeegjFMsQwDMMwDMO0HzGf8UkXiue8htq3lNh5ZBiGYRiG6ShsM5A9igbibx+mxwwkwzAMwzAMkxpsDmT3m/vjb7+tlUkMwzAMwzAME0uMA/nX35ySSQzDMAzDMAwTi82BvPEz/fD339bJJIZhGIZhGIaJxXIgGYZhGIZhGCYeLAfyo6wr8clPXiGjE+fChXN47xf7cWu/W5MuS6DK+8wtg5MuKyhhsIFJb7gNZR5hr1O2z4T7HqPgPpEcXvZZDuS5y67B+bMfyejEufzKq/H23jcweFBx0mUJVHm33TEi6bKCEgYbmPSG21DmEfY6ZftMuO8xCu4TyeFln+VAnv3E1Tjzt7/I6MS55p//FT+vetNwIJMtS6DKu7V4eNJlBSUMNjDpDbehzCPsdcr2mXDfYxTcJ5LDyz7rQ+LNzeLvMwdHz59sWQJVRluUFZQw2MCkN9yGMo+w1ynbZxL248B0HGFvC+lqX9SBbGpGS0tLYIn8imTLElLltUVZQRUGG1jpLW5Dmaew1ynbZyrsx4HVcQp7W0hX+ywHsuniBVtCohL5FcmWJaTKa4uygioMNrDSW9yGMk9hr1O2z1RKjkPDCxhz3wtocEsLo9LN3oBKSVtIQOlqn+0Wtp6QqPSpTausfYuQd2NPqUXY68jjJ33KVI9vWDdRK7Mnxq6L2NJjRB1krLa+Xf42xdjgUta39sXma3OJ7X6xtU4ewdovTsTaBi0urnys9pRXOzbri9pQqOrHpQ2xYuRVpwmPTe0k7zYXDsXYZ4yrjrHYLS5BeR2H9q4nQC5b42/7j83GPrmUt/ex1vfPsjeDlaq2EK9c7TP6QNS2aP0mMk63zZgeY5+0rX2fgRy8GPW75qEP7kXFicUoNmPjQjdYEXn+fhQvLaCy3ke9oWdQuH0fIjLdldxJ2KzWt2xR+f1tcrMBen4q78RXb8K45xtlWjsh9mHTJOTKYNwEzce0Ge5tiIjswzYUoc+7O1Dp24CZsOFWp4HGpnbCs82FhI6yz207HVpPfuNvG4/NucV301hSi3oZNjmAXS8XYWRxjgxfuqS8LbRCrH0HML/0Oyh8Vtn2PipudNZvx+F2/EDnL8uBNLzMpouBJfIrbGUZG0y8bFVetKwqrF4KPLZjAQZb692OJ1+agOz65zFu/PNY+9hNyC8Uuh9r66NlWYqxpQ5rx9+E+VXaOlWLkE9lieUYG5z5u0zAK6u/gMNLn0OlipNlutlRadlHTue6Opf1SbTtetv+LEKlDNvjhVT5ooxhWPJuNZaUxpZTL7YjltU2dLs8y2S1hWLbsan6vTuAu5/AjPuqsW2vagsko54WYe26+2V9mO0z2nYcdSfXcatTo96dYc/69mhDqgyWpdg6jXdsor5spDn7/CLM9xiHghz/GPs861zJY8xytT15xdjndo4IeN7QFbMdv3oSy2J/VZ14HgdHmjMfnfQPo1nLJ+q2A8bmLgMxovcr2GVrQ7uxsXcpirvQeKONJ0LW+cc4zmSvbo+QM+zVRtJECbUF23FPVZ+twwl8AXcNjK4zeJGw1X2crnStX/d1bW3P2JY97OanxNhntJtumgPZ3GQkBhblVzjLMiO1deORLM8qK9JAB7Qb8rId60nh3eWoKanGqfdJz3TDE/NedL09YBaqwtl4cPoXsHH3ASu9avePMX76RDPstIFkRqj8pM8VYzxOoj5ihqsWjcIbQ7fG2rH/CXzl5GzsEfHvr8JwKkqt/0S3Veb6Qi9ORA7FR/dnAYaIsCjDFl+NPfOaZfm0Hy9uxYKiXliw3VGOka8RFfOW48ZnZJrj+MR77FgB5NKGRH1Ubm/G8MHZGDJ5NrB9v+14Az/GGy1PyPqg9jn9Zvwkpn5aqVOtPGfYvb6925BeDovkrNO4xyazL8f2+QV4wmMcCnT8Xdqc+7hhpnmOWbZ8pu2qvKTkZp8RYV/PLS4hObfjW09Bx0hHvu2z0ccqk/K15GNqh4zN2Sge2svWhhrqT6LP0EHGtnIeWGeWIW3Etx9FhTxn0X+2XyU97NdG0kIJtQX9uKeoz2bn4EY6D5S/0OhY132cHuJav635BVFZYQ8/JcY+kYewHEiBSggiJ9E0Whb/rHB80jHiGupwuCgfuY71TNE6RbMx9XMynJOP3iqfTS62CAfwlb2oMsJv4SevjMNdshwdz/wtOehadASnjGcMzPwPPdDFTBNlV+9EpeqoVjkD8aCxjrn+DxcNlPFKtJ6+P8Z2RV57fM4D02zlm+uoPEIyX2Q/3oBWns0ue5nex44VRDpWvFEfQ1EsBq/sQRgGrQ5lfSxXbUjUh1v9tFan+vZsYfr1q29bPpabdIy4RMYmrz7vMw4lKh0zzm6DfdzwG7OctreNdMw4+hX/tHXc4xKTjhHnV09Bx0iRr1qvK2G3TNOXrTjHem04NucMHoreVhuii9QdwLDBsl51iTGnSJUj7bB+1Xp62P+8lg7SMeJC32cH4ok3Z6PlO6PQ7aYiQwv2a3ms9Vxkq19SzLoUtsXZwwJzWfkpZpwimkd7ica5UqLo+ZMtS6DKsJVVXYcGudh2DMRd925G+frTiKxfg0333oEhMsXVhhgaUVvdC13FwyyNEbqq2Yypn+mNAkMzsclcCRj0IB7FCtwl0x47QHHG+h1ApA7vykUT0+mt5Wfv2h23NhTZtxPvVqu2MBpPVR/Bm/tOy9Q44TpNGa7jQrxjk2ef9x6HEsXVPi/8xqx2IiH7ksB1O171FLQ/iXxFNyBPBhOmLftxziAML9qM3ca55QDepIvUO7THHyPrH5R1LMYcGRkPKWgjbU1CbcFJqvpszkT86L13USP0g3HY9LUHsc7ndYvA9avj5qcQrvYRthnIUDPoDoxHDerb4X0V4zbizufxw53Ao5MHytg4ObCXOlMB8kVHzclFIehKRVW6oefxZaMTZ+PLL5pxu+f2wqbVG5J/WNdo2HLbfuTegN62zqI5vUwHcxp7RTt7U2sjdKWJnQcSaw+t1Wm8gyOTPG00NiU1DiWCPm74jlkZhl89BR0jRT65GIg2HZuzccdQOrdUHjQuUjF0UPQlnQNP4q5lBbKeX8ejRTJex2vMyMQ2km59Vjh2fhcW8dSvjuf5IdZP8cNyIMUHIrOyWgJLfWiyNfY9Tp7tA1HnyS3szkBMnQs8NfxJ7JMxwEE8puUNjLhyoyusTY4rtlZp3ID7vrYZ43+wQF55RK9IFPseN+2NrH/SunrIzSsACnKRK68Ypz5+0ExIEGMmy7rqyUZ+gUcD069MBcLpLUpwX5m2wWVmwBigq3dibyKDWat1Gh0c91WscMxyeOHThhgfEhib/Pp80HEoQezjhveY1WE42zJht9H9POEXdsennoKOkY6+a9htLmp03NicO2QoetfsNRya4UOyZSzZ1VADqOMpxiDXGSqvMSMEbaTNCXmfJYfwPu14m3WmLixi25N3/Xq1Pfe6dvNT/NBuYTcBWRQMKCO/xHJG33oSBcOFcWL6+0nsF3HGGprz6RIWv/qXz1Va3pfWYc+8GttUOv5jAvKMfFoZbmEr3izfri64gY7VeFWWlJsNWfpUPu1b4TOH8eTgaJ7ixa9hxM7R0r7emEpVWkzxefmiscp8XwOeWzyA1u+CyS+9hgU1M631Cx4/ILcTLdMWtm599sZdO0uxxyjHTCue8k2c/Jos54GX0Gjlo+18W0sT239J29d4jx0rYTnbUON+OsEUZNvaWVbWAHz+3iPYvr/RDLdWH63Vae4E/Ne8aHvb3fWb6KOX4VO+axti2eQ2LsQ/Nvn0eY9xKFG52ec7bniMWUa6s620gWLtE8fk+4Bqdy42xnPesIVJbsfBu56CjpED8OQzBVZfm1NX4NrXOmxszv0cRhgOTSlKcqPxeV+aivGvyDY3vw6FRdp5UJTpOWacMeTeRkTaR1IfS52VOqfpPKmJJLeXAiXWFijddpxT0GcHD0HhsujxLhi+EyO2r8NkWafO9pTlU78xbc/n/ODup3iMKRTOqnphacstpRPw4Z/+jss+Qc5gQC5SwaeOHsbgQcX47Z//QTHmBoPTCTXv/xIFN/Wl5WTLao23sKBnFT5/VM0kKjrShjhofAn3fQtY8dL9/G3HtCFkbYhpA9qrTr3GoURx2Be6caOj+sSl1vf+SPoD6fekD0kfkMSNyjrSn0nmXxO5VKl5H9QWZKANWdAT1GcRsM+qqcKwt1V3+ywH8oM//BVXXnWljE6csx+fRd2JasOBTNYZFSiHtFvPPkmX1RqRFyahuHYa6h8fJGNMOtKGuIi8iHF05bBy4wPsQKYJoWtDTNK0V516jUOJEmNfyMaNjuoTmdn3/kISDuFJ0nukn5KE48j4cbEJ1BZAbQHUFmRkGxB5AdRnQX1WRiTMr43/w95WveyzHMjTv/8Lrr7mahmdOB+d+Qj1J39lOJDJOqMC5ZDeUFiUdFlBCYMNTHrDbSjzCHudsn0m6d33xPNvYvaQvBMcI7GjmAxnPya3+wSoLYDagowMBaJu07fPWq5kVqcs4+viQSXyK8Sr3llZWUlJf23cLb0jFAYbWOktbkOZp7DXKdtnKpzHQTwT+EdSHamatJ+0hbSc9ACph1QpaRppGel1ksgjnmtjBZFsCsavW3rqZLaLcLbVqDztUzOQ+w9UGSskw5VXXY1b+92KD/7vr7jiiitkbDDOnTuHuuPk8XYvSrqsoITBBia94TaUeYS9Ttk+k/Ach57yl0kV1BSoLYDaAqgtyMhQcNT4P137rOVAHvzZQXx8Rrz8EpyrrvkUOnfujMaI+xeGEiUnN6/NygpKGGxg0htuQ5lH2OuU7TMJx3F4m/SMucikjJxcUFuQgdBQIX/Ts89aDuTu3TtwW8k9uPzyy2VSYpw/fx5vV76Gbjd2R15O4O/y22hobGizsoISBhuY9IbbUOYR9jpl+0zCcRyWAc3sQKaahg+AvC4yEBY61cuF9Oyzttd9LrusE85+9PdAEnkZhmEYhmGYzMfm9bVkteDcx2cCSeRlGIZhGIZhMh+bA9l0IbgT6Jf3f9a/imuuzY9LYl2GYRiGYRgmvNhnIJsvGK9pBxLl9WL27G9g83ur45JYl2EYhmEYhgkvNgfy4oWL7s5hHBJ5W2PcTdN9xTAMwzAMw4QfhwN53tU5jEcib3ugbm3fucZ8/752zTgtrgKz5LIVN9v8nuWu2fb4a0bOxy79DfSGKswaGU2bNXIcylt5g17ftpCyKTEiKI9jWwzTUdRWVqF8tmjb1EdkXBS9n1QYfxfDDrVnI69Yx9HHPIlQ/5R5nP3SN03063G409MWb/zyBS0TDRVmPkP2Pl2ujplxTLT1aBuonC/TlMZhVqXMGEL820cSx9Z2/DTJMdxEjJcUl2jdZDi1P6Rz4/VR3UlhnfLRMo1+nXW2a66W1igjW6GWqqRc5nNrA7O07en11Fo+L/z2r7V998M6LiSx73eqcijegOL0fRHL5eIY0X6ofEqz9GZ6iWK/hU3/mi40BZLI2x6c2TAB/ZdUYc8086+4dp22GUeW9MGUDfUUNxllhxai/6QKnPldvaG5BWXGYFy6oh7L+/XB8kNm/BFqCGPKozVePnMXuq8y086smo7uMt4L4Tz2WliILXI7Z35XgZ6vV/KgxqQ9XUuKMWPFZuovMkJj1+yyaD95pAbTbBdNwnlcDQxbKfvEUpTG8RWKXbMfwVaZ58gjwDKtX/ql1a6ZT2mbsUdsaxXwdJwXcH75gpZpkDfZyGeMR0sK8equaN4Z2yowpd9CeUzM9Zb3m4At2yYDJUutMcw8biuBleG9qPRrH8kfWzomxjHQtKJYphENlXgVfdD/nW3YEdLjkyr6L6Hz44em9kyVkYRwsF6l852R9jpFaI6OcB63DjPTzP4lE1qhK1XJjGVwHyOozO5Uv8b2qMxpmkPnl681vPZP4Jfmxww6HlPIFpGvNIfy0q+wbYs4TkT5TG1f6NfyC2g/jtA2p2yIbhfUbQ3n8hLG8QykcAMD/qO87ULJdHLUVmuOWgQ7Xi/EwyUy6KC0WyGOnoodqLpOK8WUY9FvLgEngDq5Xl4uDfibMcPz5FeFpxdSQztEJwMZI1pUGZ0MuopFn5kIfSb0zjV0JT+yGHPeOYw5/WU8X1kz6cINBUCN1ocqV+P4sKWYUWJe3MVLKTkjZR55/NJ20CA/SvX7vHyALuDiwS9f0DKjyPFomhingl5Q5qLsEbsDmi6077ElZ2jXNmD0SsyddDgtj08qqK0BxkZPVKjZTuchuVxKzlyZ5p+3OTeQaPtpTZ38JQdTOJwz6NeNMnKWX01kWjUDsTmQQDM5gk2BJPK2D7l4ePQJPK3GHjppvdqj1HTcXNi1/QR6dos9Ae1aU4ajPWgQk8xYNQvHVxZLJ26+/9V/Qz2OohAFrg5mhK5alqCnmk3YUIg5M6VTWDkfY44txBHjyroCY5FPjmoVXfFEZ0bPKCeUYUJI6YyReHWmuA1JKq/B3BnRs0/tKfpv+3x58SRuwyZwgpcXXb3oKn6NPuMk8EuzKEZ3OlMlPn775QtQppghM8ajXIzqkcQsmdM5T0va+NgazrlwhnKpHdIVfGAHPTM5RIfE7XZqV2pKyrERt5BfXU9NS58pk7dujf5FDmWylM6gbcw0y7yzHDRGyIQk8do/gV9aMsxYBfILZNnq9rUXmeAsJ4l9BrIl+CxiMnlbo2vpSBzdbrYS4SCO1U5iBusnW7N8ywpWokxd9SI60zemZqT9ZJQnZhClE7eqFMf7uz/fY1BXg0P9CtwdPeMWy8LojGhJKaa43m4pxgx5G55h0oVauhqfu0rchiTNKEWNujonams2Yi2dnOYaF0Ob8fCpyvgdBHX7V9zysj3zRvilhQwxQ9ZzmDmulA5Lz1nE1LIRY+TYrWQ9D2qMrSNxt7hwzyuhC3C+ja3oOjV6K1XdTlXOtUjrSY63cIKEk9jTeftY3ro1+tdcGZcE5hhhlrmHnEd9jAhKa/vnlZY0dGzK6NgZZQtnsn909paJxTEDGVLohDIXZShvqMLWYyNjbzVrz0CqZyVN5EzfoSosP7YtOovphJzJUZNOoMZvcHqnxr2RCudSLprko3u/wzguOlHJdCzHEvRyDowMkybsWFmDrqq/0e9xeSGn6L9kuvbcY41/H3Kha8lSjD22y3WQ9ksTs1PHUaA9UhIvfvkSLVPMkB3G2onS+Zm4EYc8b9O24ljSOIKC6B2S9CTIsY19BlJNAAjn/NA7avw0H/1hB90d8ayefn6ynCD6FWl3u9yGFc8njj2WvIO0gxy4rqp8+j2+XS63Ic790/FLSwral1GTHLO3OuIcX2AuXqrYHMimiy3IysoKJJG3PTGu7meWAY9MljEJYDzjOAuYKGcZxS0y8eyhdbKLkGNaaF7puiFmFeHhYN5QgP4257Iex9/pg+5iehtiu+agKB6aX7uSn3dk0ouCHjQ4q3bfYL/Far+tGEFtTYHtMQ/z+V/nzH7E/OKBvN1dWzkfc2gUNmf3/dLoJDiaBnNtduroaOtWg4H6SoLzQs0vX2tl+iJmyHpEL16FtvTYJh+HoYtSWla39WvlozdezlX5yhPGrdp0o92OLR0TcfvaetRHSNy35NvYBsbbwfJazrhNTb9ud8jUCzUqzZlvDv3q+dQb2ok4lcYYoZwsv1u+Lqg3qp23of32L95992IU2au2Z+SnsNEvxa19KtvaF2IrOdhuzregnBxn/VnTS5EOnYHc/P5qX/kiXqZ5pzD6ULZBFWb1X4JD6ha2drtLnLzUyyrmCaUYDy85gTHWCa0GT8+UMwfXPoLuq5b6NEKRlzqb7Ta3+LwJOYTi1kq/jdiqBsrKXVjbz7ztIt5CVM9Wdu1WCPTIp23kUoeTM5QMEwLUJ2fmvCNvJ2ovdpWuKMVW1U9m1mCU7TGQyVgzugbTZB/aOmyy5iDRRdl6+pnkdJpyUaY9fyxusW1ZpZ4D9kujPjRtKbBd2QKsifOREL98QcsU3KnGHu3TYWPWizHHfJGudAVdtGr7MlcdO3KMey3UZi7p2B1/xO8lvtTi1z7a69gazrm6fa3Iy6dzAN/GFpRpz+oZbYvCqp9Yn7khZ+jpbva3lJ35tmj5BGaflQ6Vhvr8zZx3gDGybGuMWEb5qH6NbdLvKO25Sr98fvjtn19aPAh7xW1vK7/jOdCn1b6QxBvZRtnUxXvR9cvaidG04494v2BzqZBV9cLSlltKJ2D37h3ofvMAtDSdk0mJkfWJK3D8Vz9Ftxu7Iy/HPhKKP08Y71+YWbHiu3ho0lhjuaGxIaasjka3wfyUz2FjWSA+w2HcbhEzmuJkYsSKWzLybW3xvbeJG41YW7y+fr+FOMIv0mQ0YWjHHY7Rxrdh7KHwOkbJEPY6TQv7mvdq46bGpAocKShDr5pZ9k/6EMJJX1YQ/axba4TjOJCH0vyMXA4xYgauP6jPZqZj1PABXYN0kYGw0Cl6VycdxxSbA1n42dsoKujb1J1w4tdvuzqQQQnDAQ17pTLh55JsQ+LiaXtpjAOQKaTjYB8mOsq+cByHNHEgq0B9FjjjmJHLFNiBTA43+xxvYTfhsk90CiSRl2EYxqBkacY6jwyTkVB3zVTnkWkfbA5kc1MzOl12WSCJvAzDMAzDMEzmY5+BpH9ub1jHI5GXYRiGYRiGyXxsDmRWpyw0NzcHksjLMAzDMAzDZD7WSzQHf3YQH5/5h4wOxlXXfAqdO3eWIYZhGIa51HmZlAYv0TApYK/8TU9sb2HfVnIPLr/8cpmUGOfPn8fbla/xW9gM44DbUOaRDm9M5ne7SYbCR/2p9zvEPrGd1NdTmryFbfAp8gr+hfRPtCx0tdRVUleShI+gHlkT7z6IF2iFLrr8KunhC7HLLeLzgWKZZCyfleG2w3wL+5MyFBI6nZQL6TGmOO2zOZADS8fg/NmPZFJiXH7l1Ti4aws7kAzjgNtQ5pEOgz07kOxAWnS6mf4Tfx4tm3Q96VrSv5M+Tfo3UuaTDn023eyzv0ST1YJzH58JJJGXYRiGYZgU0ak3aQppOWkLqZokvjX4v6SVpK+TvkgaQhJ/RfrScB6Z9sHmQDZdCO4E+uUVf4nG/JNdrUusyzAMwzCMG5+kM/ddpFmk75G2kn5FEo6iOH8+RrqXVET6ZxLDMAzDMAzDMEzKAf4fa6bfFvNtUc0AAAAASUVORK5CYII=;" vertex="1" parent="1">
          <mxGeometry x="177.1" y="410" width="195.8" height="20" as="geometry" />
        </mxCell>
        <mxCell id="MfhTrvXRpiW5T_UfHGdc-14" value="Calculate &lt;b&gt;Total Price&lt;/b&gt; by adding condition value of &lt;b&gt;PNTP &lt;/b&gt;condition type by converting it to AUD for all items" style="rounded=0;whiteSpace=wrap;html=1;" vertex="1" parent="1">
          <mxGeometry x="390" y="310" width="225" height="130" as="geometry" />
        </mxCell>
        <mxCell id="MfhTrvXRpiW5T_UfHGdc-15" value="" style="shape=singleArrow;direction=south;whiteSpace=wrap;html=1;" vertex="1" parent="1">
          <mxGeometry x="472.5" y="250" width="60" height="60" as="geometry" />
        </mxCell>
        <mxCell id="MfhTrvXRpiW5T_UfHGdc-16" value="" style="shape=image;verticalLabelPosition=bottom;labelBackgroundColor=default;verticalAlign=top;aspect=fixed;imageAspect=0;image=data:image/png,iVBORw0KGgoAAAANSUhEUgAAArkAAAAxCAYAAADeIrEoAAAAAXNSR0IArs4c6QAAAARnQU1BAACxjwv8YQUAAAAJcEhZcwAADsMAAA7DAcdvqGQAABmbSURBVHhe7Z17kBXVnce/MxB8UKmt3b9SK8wMwnUQs2RgUVkRGAczCAIpwQeghKAsaAaqUmwGDKKokEmUXYrsMBthDQ/xwa4BS0GBCQwDyAZ3WSSsD3Ccp1b2VbvJmkLlMTN7ft3n9D3dt7tv376P6Xv9fagf957Xr0+fx69/ffrcnqLmF+p6b6yeg8+LrsTXvnYFwnLp0gW89y9HcdOYm9LWRSh937xxQtq6whKFOjD5DY+hwiPqfcr1M+G5xyh4TqRHPs8ly8m90H8gLn75uYxOnQFXXo13Dr+JCeMr09ZFKH0333Zn2rrCEoU6MPkNj6HCI+p9yvUz4bnHKHhOpEc+zyXLyf2y39U4/3+/k9GpM/CP/hj/3PyW4eSmq4tQ+m6qnJq2rrBEoQ5MfsNjqPCIep9y/Ux47jEKnhPpkc9zqVh+oqenR34Lh14+XV2E0pEJXWGJQh2Y/IbHUOER9T7l+plEvR2Y3BH1scD1yx5xJ7e7B729vaGFyivS1UWi9GVCV1iJQh1Y8lt4DBWeRL1PuX6mRL0dWHInUR8LXL/sieXkdl++5JohqFB5Rbq6SJS+TOgKK1GoA0t+C4+hwpOo9ynXz5Q+aYeOF3DXvS+gwy0tipJv9Q0pfTIWUhCuX/bEtl3BLUNQ0ZexLV1HVqPsuhFSVuOwo4yf6MvjenzHtrmazhGYua3Tlp4gYhLP1PLbxb9OCXVw0fWjI4nlMi503PuSGaJObLlvLrZ0aHGByrFkU7zGsdlfYgxFqn9cxhBLgnj1acq2KUviPeaiIQn1M+yqwxa7xaUoXu2Q7X4C5HfL/mbfNhvn5KLv8OPJz8+qbwFLX42FoOJaP2MOxOsW799U7HRmbHpC/WTdbO2VgTmbDcnuntwJT6K98VGMxj3Yeu5JVJqxgdAbVdG5/X5U1sWErvfRbshzKN93BJ0y3ZXSedil8lt1UeX96+RWB+jlhb5zf3kDZm3vkmlZgs5h5zyUymBgwpZjMob7GBJ0HsFeVGD0u/vR5DuAmajh1qehbFOW8BxzESFX9XM7Tk77yc/+Ztg2l1beIWxJK9pl2OQYGv+hAtMqS2T4q0ufj4UkJNbvGFZW/xTlf6/q9j62Xufs39zh1n4Q1y/s24JmGYoqlpNLHm9P9+XQQuUVNl1Go6SuW+mL62rGpjrg8f2rMMHK9xdY+9IcDG7fjlmzt2PL4zdgSDnJ/djSHtdlSUJd2rBl9g1Y2azlaV6NIUIXfU+og7P8oDl4ddPdOFX3CzSpOKnTrR5NVv2EY7ytzSW/EHHsdtv5rEaTDNvjSZR+0jEFT797Gk9XJ+ppp+PQd3UMvV6eOlkyIYnj2JT2w/uBO9ag5t7T2HtYjQUhRj+txpZt98v+MMdnfOw4+k7mcetTo9+dYc/+9hhDSgeLJYl9GtQ2iblspDnn/Gqs9LBDYdo/oX6efa7Ew2a51j19Saif2zUi5HVDl4Tj+PUTfafzVX3i2Q6ONGc54ZicQo9Wjvo2B7Z50DjcOepVNNrG0EG8MqoalYOEvdHsCYl1/THaWdRXrw+JM+w1RvJEUhoLtnbvqznbhnO4G7ePi+eZsJrq6m6nm1z71z2vbewZx7KH3fyUhPoZ42YYah7uRb1tLKn6+xyDvge9xmVA4k5uT7dxAqFFlFc4dZmRWt4gIvVZujo7RKcPQ9lgRz4pePdZtFSdxsfvC3luGNY8+qLroyBTqQoPxvzFd+OVg8es9OaDv8TsxXPNsLMOQswIVV7IrZWYjY/Q3mmGm1dPx5uT9yTW4+gaPPRRLQ5R/PsbMVWoUvnXDNto5id5cS5KRHz8fFZhIoVJhy3+NA492iP1i/N4cQ9WVYzEqn0OPUa5Lmx99Flc95xMc7RP0LZjCSEuY4j6o2lfD6ZOGIyJC2rF3fBRW3sDv8SbvWtkf4jxufhb+FVC/yTpU02fM+ze395jSNfDIsTZp4FtkzmXE+f8KqzxsEOh2t9lzLnbDTPN02bZypl1V/rSErf6GRH2fG5xKYnzOL79FNZGOsrtq8VoS6co1zsEC3NimwejcvJI2xjqaP8IoyePN45V8sA2U4esI37yGLbKa5b4z/apRA/7jZG8kJTGgt7ufTRnB5fgOnEdaHihy5HX3U5PdO3fZH5BXKywh5+SUD8qQ9w6H1P3bUezHqe+y08rv/490DXOXj6sWE4u4ZYhqDiJp4nv9M8KBxMdI66jDacqhqDUkc8UkaeiFgtvleGSIRilytnEpS7kpL56WHbS2/jVq7Nwu9Sj41m+twRDK87gY2PPi1n++w8MMtNI9+kDaFLGxNIzDvONPGb+51ePk/FKRD79fIzjUll7fMkDi2z6zTyqDIks13kUb0LTZ6uXXad327GEER0r3uiPyagkAzt4PKZA60PZH8+qMUT94dY/yfpUP54tLD79+ttWjsVNdIy4VGyT15z3sUOpio4ZZ6+D3W742Sxn3TMjOmac+KR/Wh73uNREx4jz66ewNpLKndb7iuot0/TvVpwjXwZtc8mEyRhljSFxI70fmDJB9qsuZHMqlB5ZD+tT5dPD/te1fBAdIy7yc3Yc1rxVi96fTsewGyoMWXVUK2PlcxFb/wpJyCvCtjh7mDC/Kz/FjFPEy9DnIMxf3IuNhjOu4lS6yusMi0/RvkmvcUbe9MW2XSEd9PLp6iKUDpuu023okF8zxzjcfs8uNOz4BJ07NmPnPbdhokxxrUMCXWg9PRJDaXNVV6e4O9yFhd8chZghS7DTzASMn4/HsA63y7THj4k4I38O6GzDu/KriemYt/Je0KzjNoY6jxzAu6fVWJiBH58+g7eOfCJTA8J92me42oWgtslzznvboVRxrZ8XfjYrS6RUvzRwPY5XP4WdT1Su4lqUyWDKZHIel4zH1IpdOGhcW47hLXEjfZu2Hbdzx3zZx2RzZGQQ+mCMZJqUxoKTvpqzJXPxj++9ixaSn8/CzkfmY5vPz39C96+Om58icK2fQpSZemA7jshg1LCt5Eaa8bdhNlrQnoXfeBmPjEUnPX8AeGzBOBkbkGOHxYSPYQgZk5JSlEPc8amBach2fM8wNIPxvRfNuIMrRmLnppfT3+BuTD55bD9Kr8Uo24TWHHMmx3yCwzTO3tLGiLhjx4FjqY2HZH0a1IAz6ZMh25SWHUoF3W742qwCw6+fwtpIKie/hiKjtnkwbpssri1Nx40baUweH/9h27G1uP2ZmOznN/BYhYzX8bIZhThG8m3OkvPpd/MTpH91PK8PiX5KckSZxUDD1jYZlkTkGmQ5ufSS36Ki3tCiXhacjCNPiTuEB+IOnlvYnXFYuAL48dS12h3DcTyulQ0N3QGLO9WdjjvfpHS9jHsf2YXZP18l7+Did3aKI0+Z9e3csda6CystiwGxUpTKO++FTx03E1LEWBG07h4HY0jMYxLod/gEOeYVKZ4rkxlcVliMi8jpAzicisFN2qdxA35k6zrHapEXPmOI8SEF2+Q358PaoRSx2w1vm5UznGNZYK+j+3XCL+yOTz+FtZGOuWvU2/yqkTvbXDpxMka1HDacrqkTB8tYUa+OFkC1J9kg15U+L5sRgTGScSI+Z4XTeq/W3mafqZufxPHk3b9eY8+9r938lEDQam7LLsfYD3MNspOJea9tV+gGikQwpBjlJZbD/PZaxKbSydGjjrU4SnFGDs1BdgnTp/4XNlRa2Xe34dCjLbbHJnh4DsqMcpoOt7AVb+q3yyBcK/pzttIlxa0ORfpjG3Fu5c+dwtoJ8TKVT76OOw/MkPUbhYVi2FWK+LIhNKFkuUeAXzx5i8g/CAteeh2rWpZY+WNPHZPHieu0ha3H3KNw+4FqHDL0mGmVD/4QHz0i9TzwErqscuI4P9HS6PgvaecatO1YUhbnGOo6Ki6CscG2cVZUdAu+fc8Z7DvaZYaT9UeyPi2dg79+ND7eDg79IUbrOnz0u44hFpu42YXgtslnznvYoVTFrX6+dsPDZhnpzrGSAUmsH7XJ3wJq3LnUMch1wxYW4tYO3v0U1kbegrXPxay5trwt5jrXcmabS2/FnYbTVY2q0nh82XcXYvarcsytbEN5hXYdJJ1JbIbvGMkDSW0siHRbO/fBnJ0wEeXPxNs7NvUA7ty3DQtknzrHU5FP/yaMPZ++dvdTPGyKCFvfqY0enmXkMcJpXINsYUOjHp8k7CbNL9T13lg9B7/9n8/Qv59wWENyWZz8xx+cwoTxlfj3//2DiDEbJTzFaHn/XxG74c/F93R1JeNtrBrRjG9/oFZkFbmsQwC6XsK9PwLWvXQ/v/s2b4jYGGIyQLb61MsOpYqjfpGzG7maEzz3GEWezdnIkb9zyfJqyUMv7tc/tChPn6DNyf2K+6Ul+kZnt/RMyqcvPo+d91WhyhGfyzoEElo1F13mmsYSSYncGGJJW7LVp152KFVJqF/E7Ea22s8puToOS/QlW2Mha3M2YhL1+vmJtZL7yX/+DlcPvNo4kTB8fv5ztH/0G2Ml99P/+j2uvOpKmRKOL7/4Em3nTuPa8oq0dYUlCnVg8hseQ4VH1PuU62fCc49R8JxIj3yeS9ZKblFxkfEXK8IKlVeQt19UVJSW6HcObum5kCjUgSW/hcdQ4UnU+5TrZ0rU24ElF0J9b74vNT4WnEL5aC+ps2zuJOpjNer18xW1knv0WPp/gfjKq67GTWNuwqf//XtcccUVMjYcFy5cQNtZcecwvCJtXWGJQh2Y/IbHUOER9T7l+pkUxtwj54J+1K3kshRnnPPTK84t7JRLLnEX5adKo0+SC/KT0klItxLK5/ykPJQ/t4ihIMYCxFiAGAsyMmOMFDJUyCAp9JoFerPFnwgJBs/Z7GE5ucd/fRxfnKcfjIXnqoFfxzXXXIOuzsy8Ha2ktCxjusIShTow+Q2PocIj6n3K9TPJ/nEWyE8m6pSUQowFGcgpW+WnPzxns4Pl5B48uB83V30HAwYMkEmpcfHiRbzT9DqGXTccZSWh//6LjY6ujozpCksU6sDkNzyGCo+o9ynXzyT7x/kZ0LNBfmeiTMenQBkttOaS4ofEf6vM70ngOZsdbO8M69+/GF9+/lkoobIMwzAMwzAMEwVsnmlvUS8ufHE+lFBZhmEYhmEYhokCNie3+1J4R9Wv7N/t2I2B3xgSSCgvwzAMwzAMw6SDfSW355LxiohQIsp6UVv7V9j13qZAQnkZhmEYhmEYJh1sTu7lS5fdHdgAQmWTMeuGxb7CMAzDMAzDMJnA4eRedHVggwiVzQ7NWOrY0jCp1nynb8M0Cs9CA73VomMrJqk807aidfMsWxlTZF4fna5I3ZM2a+8fMeJWolEGvekU9VTHzQB0XDo/GWSYvqMTjbVynk0TcyHoGO8Q88+Yu85yifNyoDYvW5ua0WAcL8i8s0P1NOyDy9zxS/PDtD8kdA52+2PgOM+lyg40rZTllMzC0iazSCGRtL/0NtPFZovJfoq4ArV5reJUG1YAA/9UjEMZlwqqrFG+S0YKGlX8DHt86/Px/CSTRDgIycrR8SZRmjhewvzySfMjGzobRH51DtQuhg6px0DELVV5xCd9b6D2E/2kyilZ6uMyMLnHy97YtyuIf92XukMJlc0Olag/8QTGztuK8//RbsiKWL1xUajZuxUPjgF2N4jRVrYAh0Tas2Pm4LW95rsLH3yZ8lOeJ4xyr80zogXeOr0ZDbyxKZQhyih0nuL86NXTDNOXNNYuw54p6435c2YZ8AzNwwA0LKnH8GXNVrm7lmjvkZRz1RCaozKaGFpViZp1u8QclxEBad28UtRzl2Efzm8ENmg3q35pyTDtD9W3DtUu9qdhSSOGb5TnsnExhhuxgqo6nHl6tLRPJOuB9Rm8EY4IwfpLtJfRBpqsq5Rpgo4m7Ba2d+zJvdhfYO1DDBWnWvMMUh7TBDm4mAKc/60p1fQ3CATkAO6R8ea8NOMVY5+Olzm0UEYGwKscOcB0vEOURnNIc4D90vzIhk6i5g3hF4i2pnOg9iId1PaviXiiYQnEnDXTSbc1Z0U/nRHn/+DLMk0IxLQ1HGAmEnjZG8eeXHJVQ/4TZXNF9bByfPCxuhhNwwrUJ1wghi7ahfoqGZBUiwao8XjNm12nG+VYQQbD8yIoVxyM1Qh1waK4Siw/eQrLx8o0txUJuTrbUOss70yTK0aWDv2YQlzjC+/iyUQDmk/1VaUyFJyavWIeynJDq6rxoPGNEDef0kEkWhv3YsQUzeEJyX5xAZuubEHZEHGzGr+b9UtLn3NAm7QXZaXmebvan1LULyvH7sbgDvZXBRoDmLEeK+ad4vbREfeTZ4WjV+MyPaqF01yf/rQJjDGH1PHI0ZYOI+GX5kc2dAamTX4K3eQU19AxXKgX/sDuPl/1YpJhc3KBHuGsdocSKpsrGvedw4hh8Ytrdc00czU3DZw6XalajJkeq7mNtZXYPcNcnTr/cjmWLyGHky5szeLOYjSePSFXKbxWYU8+LYyWmYfuGM3yEiutDtUyiqBjLr8+vhqtdLvXhWGygHzkPHI9sFlfgQtI6+Z6fDDDcTcq2f9GedwBzRiVGI4WjycyfmmpU7NxKc6ur5Q3oCv9bzavjQEt7TLAmHQaDs3M6lJh458wbkDYjpm0fiz+2xd/3J7w6Fw+ijfmpXB6dU6IpgzzyD1oOVr99JpDfml+ZEOnGzUbxc2DaDPjPNVWBS+uFdJifmWii30ltzf8amw6ZQOxY4G1YvlMbL19lbZsgetqblL8dLoinFbX1dxm7NkxBysWSSeZVqdSfbw25gn8QB5/6KKl9vJaWhzzmK8lOBYZqAvDBEU+pqfHoov89rW7QFsFFrUsxSE1VnWE87z7+mrbTV3eUUYr0/IGdGM1zo5NfS9x4fMK7pI2WIm1bczYqjANd9Dqd1kVZoLtmKJVOFdbdgArTpiPzn8gnF7b2CoxH8Ub85K2NUiGLow/bleP3IPcOIQtl3eIdqsXN1bGeZLDOzZzDjTTNzhWciOMtn/W7aIYajU3iU5X3FZzO9rxgc1YL8AWmZQ1jGO60Bd1Yb7yDK2qw8wPGwNfEOjHXhuwGIe8Vn/bxFU8NkQGMkknziLm4Tz7pQXB53G6cHinzzuHFi8nLWvnG3US9+SqxQbaqnDi5NMYadgxc9sXb1mIQ3tk1T5cosVl1ZH2/M780H8VNIyz6lfurBCvOeSX5kc2dCZFtO30ee7takDbGmLmVya62Jzc7su9KCoqCiVUtk+Rq7nZ/1MScjW3QXtOUTYEIxKMtff+36QYjmo5YmHKZ7ouDONKp/m2gCbT6WhtWonlwuLrW3Ea1T5yGTah/eKzQD/2qpc3lg3TViZcMGn7ED2mTgX1RhXnD0jvmCEuVNrqoL49wi8tOcJxvX6vOJ5qg03x1We1d95yajux58Nyc1UyAdEm61M/38LG3KpgbfMioeflX7EtC/QjMnp07nRSq2vEf6J9VFvQym5MOrzGGwHkeg+9vWG5+FTz0plG10vbnPU4nl85Yw7JNNom8YEIK/zSCPXWBuf2h3R0JmP69fHjGeciwsacFbomCV2t4lOxR9wg3KHdSOg0rKetNDLARJacruTuen+Tr7jTjKXilvWE2lqgPRJtmLYAW8SdvvpxFa3m4qRMFJgXPZVHv/h56wwEreZ++ApOyKBxsZv3im0bQ2OturiXInb9KZxVm9kDYKxgzEvyqJYe3415BXcl1N2vLgyTKUpRr+05pb1/r23U95sLp26H+HCOY3oEffIUtswlB9iU5WLO2h2XZnFxkY+pNdSPKZeflE8qrB9a+jN0UR2wTx5vCbBZe2rjlxaE6nVLAa0NVthWpluwYYnU/Y1lGL6xzmwfcUMw8gm9DZbh7LLCuxEN218G+lYFBd3AF9jWK/VKK5oDd4lP5yuxzDnkslIpHK/NIu8iKiOE3jag8tRr+0rNeRl3SJ1pK7Q0wut4fuVoKwPtD6Y0Yw5pb17wS/MjGzoV9MM82m5hnYtjz/IGodPQLYTetGCcp7jMjhT3WFvmxtPOLvP+URqTe7zsTVHzC3W9N1bPwcGD+zH8W7egt/uCWSJFivpdgbO/+ScMu244ykrs1pr+VG/Qv2S2bt3f4PvzZhrfO7o6EnTlGqMOPYcxaWwLVug//KJ3XYoB/5oVp96kYATMrRDqgkerOuRU0/cxT+CM88dnejqh56E0msiuYa9j+tSFyTlRGMc5xxjTezHzRGE+RYh6n+ZF/Qy7qtk9hbBXZ2L1GNmyNMFu0dOBZ2LNgbeXZb8dfgb0bJDfMwytLI6FmEM5cqZyfbwc0/GpuE8aJAO5ovgh8d8q83sS2KZkB5uTW/5nN4uosG9JKMa5f3vH1ckNSxQaNSd1cDqyTEGRr8YhLegmcF91wd5c8QUpPXJVv+wfJ4tObjPEHALOO1Yas0auj5dj2MlNj6jXzwvH2xW60b9fcSihsgzDMAZVdfz0gGHSQUyfnDqcuT4ew+QAm5Pb092D4v79QwmVZULCf8WMYRiGYRgmo9hXcsU/tzcnBBEqyzAMwzAMwzBRwObkFhUXoaenJ5RQWYZhGIZhGIaJAtYPz47/+ji+OP8HGR2OqwZ+Hddcc40MMQzDMEwh87qQLP3wjCkA6IdnD5hfmT7B9naFm6u+gwEDBsik1Lh48SLeaXqd367AMA54DBUe/Evo9MhV/bJ/nCy+XYHJKPx2hfSIev28sG1X6N+/GF9+/lkoobIMwzAMwzAMwzAMwzAMwzAMwzAMwzAMwzAMwzAMwzAMwzAMwzAMwzAMwzAMwzAMwzARA/h/p1lqJZQNqEwAAAAASUVORK5CYII=;" vertex="1" parent="1">
          <mxGeometry x="390" y="410" width="220" height="15.46" as="geometry" />
        </mxCell>
        <mxCell id="MfhTrvXRpiW5T_UfHGdc-17" value="" style="strokeWidth=5;html=1;shape=mxgraph.flowchart.annotation_2;align=left;labelPosition=right;pointerEvents=1;rotation=-90;perimeterSpacing=0;fillColor=default;" vertex="1" parent="1">
          <mxGeometry x="352.5" y="352.5" width="55" height="230" as="geometry" />
        </mxCell>
        <mxCell id="MfhTrvXRpiW5T_UfHGdc-18" value="Margin (In House)&lt;div&gt;&lt;br&gt;&lt;div&gt;( ( Total Price - Total Cost ) / Total Price ) * 100&lt;/div&gt;&lt;/div&gt;" style="rounded=0;whiteSpace=wrap;html=1;" vertex="1" parent="1">
          <mxGeometry x="250" y="490" width="260" height="130" as="geometry" />
        </mxCell>
        <mxCell id="MfhTrvXRpiW5T_UfHGdc-37" value="Same as above, except that all items are included&lt;div&gt;&lt;br&gt;&lt;/div&gt;&lt;div&gt;&lt;font style=&quot;color: rgb(204, 0, 0);&quot;&gt;&lt;b&gt;Note:&lt;/b&gt; The currency conversion to AUD is not done. So suppose if different items have different currency, then percentage might differ ???&lt;br&gt;&lt;/font&gt;&lt;div&gt;&lt;br&gt;&lt;/div&gt;&lt;/div&gt;" style="rounded=0;whiteSpace=wrap;html=1;" vertex="1" parent="1">
          <mxGeometry x="255" y="760" width="265" height="120" as="geometry" />
        </mxCell>
      </root>
    </mxGraphModel>
  </diagram>
</mxfile>
